<svg width="246" height="61" viewBox="0 0 246 61" fill="none" xmlns="http://www.w3.org/2000/svg">
<path d="M124.822 61H124.645C119.718 61 14.2543 60.9091 8.50293 60.8995C25.9393 60.8995 52.3934 40.2752 52.3934 40.2752C59.9101 34.9518 65.7959 30.4849 69.7364 27.428C87.8379 13.3828 93.1975 7.12861 107.092 3.19321C114.659 1.05064 120.303 0.397952 124.649 0.391068C128.628 0.391068 134.548 0.797275 142.384 3.19321C156.34 7.46183 161.866 13.5673 179.739 27.428C183.678 30.4849 189.568 34.9518 197.082 40.2752C197.082 40.2752 223.537 60.8995 240.973 60.8995C247.255 60.8995 130.031 61 124.822 61Z" fill="#0F1D20"/>
<path d="M150.922 29.4041L137.711 41.5163L124.5 53.6286L111.289 41.5163L98.0781 29.4041" stroke="white" stroke-width="4" stroke-miterlimit="10" stroke-linecap="round"/>
</svg>
